#!OML:ASF E:\Style4\Style4.ASF
:FULLY-SPECIFIED
:DEGREES
2779
root 0.501801 17.2753 -2.39442 6.94142 -14.8501 4.45827
lowerback 18.1942 3.24243 -2.16189
upperback 12.0987 3.77904 -1.33438
thorax 2.79791 1.77631 -0.776449
lowerneck 5.12951 0.245704 -1.75589
upperneck 6.61626 0.253227 -0.056203
head 1.18073 0.084048 0.269688
rclavicle -4.77083e-015 1.59028e-015
rhumerus 58.1835 -21.6826 -36.2629
rradius 124.017
rwrist -73.4656
rhand -9.69243 19.0431
rfingers 7.12502
rthumb 16.2798 -10.2934
lclavicle -4.77083e-015 1.59028e-015
lhumerus -52.8113 -59.9351 99.879
lradius 125.201
lwrist 39.2278
lhand -2.99436 32.7205
lfingers 7.12502
lthumb 22.7194 61.4029
rfemur -36.3286 5.80723 13.2422
rtibia 47.6269
rfoot -18.593 -7.07744
rtoes -10.3741
lfemur -29.9093 8.43854 -26.4913
ltibia 44.3795
lfoot -23.7166 13.1156
ltoes -12.2413
2780
root 0.497421 17.276 -2.39558 6.90675 -14.7634 4.46656
lowerback 18.2145 3.22715 -2.09299
upperback 12.1255 3.76907 -1.35569
thorax 2.82279 1.77634 -0.836012
lowerneck 5.10102 0.234427 -1.68178
upperneck 6.63471 0.244399 -0.113078
head 1.19126 0.0807162 0.240182
rclavicle -1.90833e-014 5.56597e-014
rhumerus 58.1313 -21.7206 -36.2757
rradius 124.035
rwrist -73.5023
rhand -9.66176 19.0498
rfingers 7.12502
rthumb 16.3093 -10.2844
lclavicle -1.90833e-014 5.56597e-014
lhumerus -51.5025 -60.0777 98.186
lradius 125.347
lwrist 38.8674
lhand -2.47196 32.8592
lfingers 7.12502
lthumb 23.2207 61.4793
rfemur -36.2804 5.72534 13.2677
rtibia 47.6159
rfoot -18.5966 -7.10925
rtoes -10.4353
lfemur -29.8584 8.4214 -26.4777
ltibia 44.3575
lfoot -23.7838 12.9622
ltoes -11.7417
2781
root 0.492829 17.2747 -2.39749 6.87709 -14.7086 4.51807
lowerback 18.2391 3.22452 -2.15312
upperback 12.1336 3.75685 -1.35255
thorax 2.81548 1.76674 -0.798362
lowerneck 5.12995 0.240787 -1.70817
upperneck 6.63134 0.251243 -0.114287
head 1.18538 0.0835598 0.244046
rclavicle -1.90833e-014 1.59028e-015
rhumerus 58.1723 -21.6799 -36.314
rradius 124.051
rwrist -73.4732
rhand -9.5662 19.0245
rfingers 7.12502
rthumb 16.4014 -10.3021
lclavicle -1.90833e-014 1.59028e-015
lhumerus -49.832 -60.0193 96.2189
lradius 125.469
lwrist 38.606
lhand -1.45886 33.4268
lfingers 7.12502
lthumb 24.1923 61.921
rfemur -36.2581 5.65764 13.2352
rtibia 47.6496
rfoot -18.6653 -7.08363
rtoes -10.4611
lfemur -29.824 8.39899 -26.513
ltibia 44.3339
lfoot -23.8456 12.8783
ltoes -11.5234
2782
root 0.487992 17.2727 -2.40062 6.86853 -14.6394 4.57406
lowerback 18.2741 3.22057 -2.2452
upperback 12.1266 3.73787 -1.32918
thorax 2.78293 1.7513 -0.721515
lowerneck 5.07961 0.249573 -1.82775
upperneck 6.72335 0.256502 -0.0354914
head 1.22257 0.0835717 0.288292
rclavicle 3.37934e-014 -2.0276e-014
rhumerus 58.1899 -21.6271 -36.3115
rradius 124.052
rwrist -73.3753
rhand -9.47671 19.0876
rfingers 7.12502
rthumb 16.4875 -10.2318
lclavicle 3.37934e-014 -2.0276e-014
lhumerus -48.0979 -59.901 94.266
lradius 125.543
lwrist 38.6059
lhand -0.564701 33.9254
lfingers 7.12502
lthumb 25.0494 62.3028
rfemur -36.2783 5.60185 13.1927
rtibia 47.7067
rfoot -18.723 -7.06411
rtoes -10.2954
lfemur -29.8298 8.31381 -26.5371
ltibia 44.3237
lfoot -23.8685 12.7233
ltoes -10.6498
2783
root 0.484111 17.2685 -2.40321 6.85534 -14.5356 4.59077
lowerback 18.2818 3.19741 -2.23579
upperback 12.1478 3.71004 -1.31725
thorax 2.80202 1.73755 -0.709599
lowerneck 5.01591 0.246608 -1.95332
upperneck 6.78702 0.244662 0.0815139
head 1.25337 0.0755765 0.345454
rclavicle 6.55989e-014 -4.6118e-014
rhumerus 58.1764 -21.614 -36.3507
rradius 124.065
rwrist -73.28
rhand -9.34538 19.0302
rfingers 7.12502
rthumb 16.614 -10.2787
lclavicle 6.55989e-014 -4.6118e-014
lhumerus -46.377 -59.7452 92.364
lradius 125.517
lwrist 38.8045
lhand 0.00759364 34.1543
lfingers 7.12502
lthumb 25.5976 62.454
rfemur -36.2973 5.5073 13.1994
rtibia 47.7664
rfoot -18.6967 -7.10981
rtoes -10.5063
lfemur -29.8497 8.23237 -26.5193
ltibia 44.3698
lfoot -23.9136 12.5095
ltoes -9.64952
2784
root 0.478497 17.264 -2.40672 6.85329 -14.4432 4.59042
lowerback 18.214 3.18217 -2.20478
upperback 12.2102 3.69921 -1.31842
thorax 2.90726 1.73342 -0.721101
lowerneck 4.91595 0.223351 -1.97623
upperneck 6.84054 0.215065 0.0981792
head 1.28716 0.0602327 0.354927
rclavicle -1.27222e-014 1.07344e-014
rhumerus 58.1862 -21.6483 -36.4248
rradius 124.07
rwrist -73.144
rhand -9.27444 18.9465
rfingers 7.12502
rthumb 16.6822 -10.3567
lclavicle -1.27222e-014 1.07344e-014
lhumerus -44.4015 -59.591 90.2276
lradius 125.412
lwrist 39.0803
lhand 0.68644 34.5221
lfingers 7.12502
lthumb 26.2477 62.7267
rfemur -36.324 5.45673 13.2304
rtibia 47.8189
rfoot -18.6713 -7.19768
rtoes -10.6844
lfemur -29.9032 8.23131 -26.5008
ltibia 44.4608
lfoot -23.8769 12.5134
ltoes -10.1462
2785
root 0.473161 17.2608 -2.41339 6.86243 -14.3449 4.41476
lowerback 18.188 3.15531 -1.97958
upperback 12.2833 3.69798 -1.29243
thorax 3.01217 1.7445 -0.815508
lowerneck 4.94559 0.189385 -1.97232
upperneck 6.7591 0.168211 0.127083
head 1.25714 0.0380626 0.363041
rclavicle -3.97569e-016 -2.14687e-014
rhumerus 58.1994 -21.7338 -36.4999
rradius 124.058
rwrist -73.0618
rhand -9.16276 18.9607
rfingers 7.12502
rthumb 16.7898 -10.3334
lclavicle -3.97569e-016 -2.14687e-014
lhumerus -42.3503 -59.4746 88.0496
lradius 125.263
lwrist 39.3916
lhand 1.32555 35.1116
lfingers 7.12502
lthumb 26.8594 63.2237
rfemur -36.2923 5.48372 13.4501
rtibia 47.859
rfoot -18.7356 -7.26006
rtoes -10.3289
lfemur -29.9854 8.26484 -26.2988
ltibia 44.5958
lfoot -23.808 12.6452
ltoes -11.124
2786
root 0.467931 17.2577 -2.4186 6.846 -14.2826 4.2686
lowerback 18.2495 3.1426 -1.83078
upperback 12.303 3.69995 -1.25629
thorax 3.0087 1.75291 -0.863224
lowerneck 5.04189 0.173365 -2.06126
upperneck 6.6763 0.135746 0.256766
head 1.2158 0.0218449 0.417412
rclavicle -1.59028e-014 3.77691e-014
rhumerus 58.2182 -21.7186 -36.5524
rradius 124.096
rwrist -73.0008
rhand -9.18018 19.0616
rfingers 7.12502
rthumb 16.773 -10.2339
lclavicle -1.59028e-014 3.77691e-014
lhumerus -40.8804 -59.4656 86.4952
lradius 125.111
lwrist 39.8455
lhand 1.29302 35.403
lfingers 7.12502
lthumb 26.8283 63.5199
rfemur -36.2546 5.54894 13.6289
rtibia 47.9069
rfoot -18.7619 -7.35285
rtoes -10.0255
lfemur -30.0251 8.3014 -26.1191
ltibia 44.7103
lfoot -23.7195 12.6385
ltoes -11.3987
2787
root 0.466307 17.254 -2.4204 6.83124 -14.2612 4.26884
lowerback 18.2844 3.1405 -1.78865
upperback 12.3016 3.7019 -1.26775
thorax 2.99275 1.75709 -0.900945
lowerneck 5.14029 0.155141 -2.08352
upperneck 6.57682 0.106246 0.305081
head 1.16881 0.00785434 0.435594
rclavicle 4.53229e-014 -1.15295e-014
rhumerus 58.2881 -21.6937 -36.6157
rradius 124.215
rwrist -72.96
rhand -9.29938 18.8651
rfingers 7.12502
rthumb 16.6582 -10.4401
lclavicle 4.53229e-014 -1.15295e-014
lhumerus -39.7702 -59.5279 85.2976
lradius 125.026
lwrist 40.492
lhand 0.843091 35.474
lfingers 7.12502
lthumb 26.3977 63.6562
rfemur -36.2669 5.54441 13.6311
rtibia 47.9651
rfoot -18.7897 -7.3229
rtoes -9.89903
lfemur -30.0605 8.3378 -26.1114
ltibia 44.7992
lfoot -23.7299 12.514
ltoes -11.0207
2788
root 0.465463 17.2515 -2.42345 6.79342 -14.2552 4.3506
lowerback 18.317 3.13736 -1.8663
upperback 12.3112 3.68599 -1.29144
thorax 2.98403 1.74546 -0.881627
lowerneck 5.20029 0.155138 -2.05802
upperneck 6.50465 0.107502 0.257906
head 1.13621 0.00907112 0.416452
rclavicle -6.36111e-015 2.10712e-014
rhumerus 58.3656 -21.6239 -36.7105
rradius 124.291
rwrist -72.8228
rhand -9.47289 18.7513
rfingers 7.12502
rthumb 16.4912 -10.5679
lclavicle -6.36111e-015 2.10712e-014
lhumerus -38.6389 -59.566 84.1463
lradius 124.891
lwrist 41.0634
lhand 0.286433 35.8255
lfingers 7.12502
lthumb 25.8647 64.0866
rfemur -36.2977 5.51523 13.5499
rtibia 48.0387
rfoot -18.7781 -7.3147
rtoes -10.3729
lfemur -30.0614 8.34737 -26.1869
ltibia 44.8283
lfoot -23.7938 12.3768
ltoes -10.6475
2789
root 0.464732 17.2489 -2.42593 6.72215 -14.2405 4.43771
lowerback 18.3813 3.12461 -1.99784
upperback 12.3193 3.64871 -1.29464
thorax 2.95287 1.71905 -0.80901
lowerneck 5.2335 0.168956 -2.06863
upperneck 6.50615 0.126364 0.209461
head 1.13094 0.0176951 0.403102
rclavicle 1.11319e-014 -2.10712e-014
rhumerus 58.4462 -21.4876 -36.8294
rradius 124.248
rwrist -72.6814
rhand -9.40948 18.9085
rfingers 7.12502
rthumb 16.5522 -10.4055
lclavicle 1.11319e-014 -2.10712e-014
lhumerus -37.6784 -59.6152 83.2214
lradius 124.731
lwrist 41.4198
lhand -0.44433 36.3137
lfingers 7.12502
lthumb 25.1647 64.6749
rfemur -36.2883 5.46064 13.4769
rtibia 48.1109
rfoot -18.8181 -7.30478
rtoes -10.4669
lfemur -30.0228 8.36597 -26.2746
ltibia 44.8371
lfoot -23.7312 12.4458
ltoes -11.151
2790
root 0.465225 17.2465 -2.42724 6.66365 -14.2318 4.54816
lowerback 18.4315 3.12289 -2.0877
upperback 12.3262 3.63207 -1.3182
thorax 2.93167 1.70646 -0.78357
lowerneck 5.25926 0.154476 -2.06447
upperneck 6.51985 0.108387 0.171157
head 1.13114 0.00845732 0.390695
rclavicle -1.43125e-014 1.59028e-014
rhumerus 58.422 -21.422 -36.8756
rradius 124.277
rwrist -72.65
rhand -9.40688 19.0834
rfingers 7.12502
rthumb 16.5547 -10.2304
lclavicle -1.43125e-014 1.59028e-014
lhumerus -36.8212 -59.7252 82.4537
lradius 124.57
lwrist 41.4566
lhand -1.09982 36.3513
lfingers 7.12502
lthumb 24.5365 64.7992
rfemur -36.2908 5.42423 13.3626
rtibia 48.1738
rfoot -18.858 -7.26774
rtoes -10.1775
lfemur -30.0007 8.3753 -26.3943
ltibia 44.8404
lfoot -23.701 12.5303
ltoes -11.6064
2791
root 0.465658 17.2445 -2.42816 6.66849 -14.2005 4.60889
lowerback 18.4464 3.10192 -2.08887
upperback 12.3102 3.60437 -1.35897
thorax 2.90925 1.69461 -0.822826
lowerneck 5.19936 0.150927 -2.06896
upperneck 6.6402 0.102352 0.245383
head 1.17883 0.00519114 0.414836
rclavicle -2.90226e-014 2.78299e-014
rhumerus 58.3605 -21.3043 -36.9637
rradius 124.358
rwrist -72.539
rhand -9.60339 19.0876
rfingers 7.12502
rthumb 16.3655 -10.2419
lclavicle -2.90226e-014 2.78299e-014
lhumerus -36.0674 -59.825 81.7459
lradius 124.424
lwrist 41.0627
lhand -1.51524 36.0089
lfingers 7.12502
lthumb 24.1383 64.5102
rfemur -36.3416 5.36384 13.2959
rtibia 48.2214
rfoot -18.8448 -7.25171
rtoes -10.2293
lfemur -30.0326 8.36681 -26.4617
ltibia 44.86
lfoot -23.678 12.506
ltoes -11.5928
